<svg xmlns="http://www.w3.org/2000/svg" height="1024" preserveAspectRatio="none" style="display:block" viewBox="354.931 301.266 1339.93 1350.484" width="1024"><title>Perevoditarr</title><defs><linearGradient gradientUnits="userSpaceOnUse" id="d" x1="1106.19" x2="1501.77" y1="1526.51" y2="1053.64"><stop class="stop0" offset="0" stop-color="#1f4bc0"/><stop class="stop1" offset="1" stop-color="#00b5f1"/></linearGradient><linearGradient gradientUnits="userSpaceOnUse" id="c" x1="846.209" x2="1052.35" y1="760.215" y2="542.239"><stop class="stop0" offset="0" stop-color="#6d88cf"/><stop class="stop1" offset="1" stop-color="#8bc1e0"/></linearGradient><linearGradient gradientUnits="userSpaceOnUse" id="b" x1="804.628" x2="868.079" y1="1504.68" y2="994.517"><stop class="stop0" offset="0" stop-color="#a373ee"/><stop class="stop1" offset="1" stop-color="#5ebfee"/></linearGradient><linearGradient gradientUnits="userSpaceOnUse" id="a" x1="775.661" x2="1274.36" y1="1603.08" y2="348.284"><stop class="stop0" offset="0" stop-color="#868be3"/><stop class="stop1" offset="1" stop-color="#b6d0f5"/></linearGradient></defs><path d="M419.528 694.362c7.508-19.254 30.123-58.877 41.205-76.357a687.6 687.6 0 0 1 302.223-261.218 664.3 664.3 0 0 1 404.034-40.992c30.02 6.292 60.3 14.182 88.94 25.319 171.4 65.776 309.46 197.238 383.55 365.214a680.1 680.1 0 0 1 47.47 372.252c-2.25 14.91-10.55 64.21-16.68 75.66-48.38 173.63-163.12 321.26-319.43 411a663.13 663.13 0 0 1-350.52 86.11c-19.33-.72-43.776-2.14-63.018-5.25-17.827-.45-71.5-13.08-88.966-17.97A677.25 677.25 0 0 1 510.83 1409.4c-13.113-15.85-33.403-40.93-43.623-59.07-1.304-1.39-10.83-16.18-12.166-18.32a674 674 0 0 1-59.11-121.46c-61.926-168.23-53.419-354.313 23.597-516.188" fill="url(#a)"/><path d="m465.575 675.557.878-1.143c4.282-5.691 15.04-26.1 19.945-34.029a644.5 644.5 0 0 1 48.656-69.348c98.276-122.96 246.115-205.627 401.252-229.951a621.06 621.06 0 0 1 454.624 110.272c139.22 99.689 232.96 250.763 260.47 419.773 8.13 52.649 10.88 108.743 5.31 161.779-1.46 14.08-3.3 28.11-5.51 42.09-.74 4.71-3.65 20.71-3.71 24.51-33.94 159.41-111.16 289.98-241.51 389.48-137.01 104.58-295.27 143.77-465.125 123.43-25.659-3.96-52.253-8.23-77.105-14.96-141.455-38.35-269.304-122.59-354.863-242.29-6.429-8.99-15.794-25.25-22.241-33.04l-1.064-1.26c-6.998-14.26-18.348-29.65-26.055-44.62-100.423-195.15-94.71-407.223 6.048-600.693" fill="#fefefe"/><path d="M725.971 935.533c3.736-.657 5.508-.614 9.34-.681l.748 1.615c-1.211.345-1.936.554-3.096.982-18.887 8.639-30.368 15.303-47.427 27.595-5.215 10.421-12.439 23.784-15.689 34.777-13.66 46.199-13.124 98.499 2.389 144.189 58.549 172.46 258.322 239.29 421.524 184.47 2.02-.68 4.04-1.39 6.04-2.13.05 8.87-.41 82.75.87 86.01 9.91-2.15 7.42-.46 9.45 11.63 2.17 12.93 8.98 33.15 1.47 44.62a23.5 23.5 0 0 1-11.46 9.07l-.09 47.96c-83.72 10.12-170.734 2.93-250.208-25.72a568.03 568.03 0 0 1-271.939-206.38c-12.367-17.5-26.152-37.23-35.247-56.55-32.274-61.35-42.626-98.89-59.568-165.34l1.023-1.38c58.599-78.163 146.519-121.98 241.87-134.737" fill="url(#b)"/><path d="M725.971 935.533c3.736-.657 5.508-.614 9.34-.681l.748 1.615c-1.211.345-1.936.554-3.096.982-18.887 8.639-30.368 15.303-47.427 27.595-10.516 5.563-24.111 17.121-32.904 25.078-44.085 39.898-74.947 91.968-92.377 148.638a359 359 0 0 0-15.498 82.38c-.33 4.21-.505 12.61-2.111 15.85-32.274-61.35-42.626-98.89-59.568-165.34l1.023-1.38c58.599-78.163 146.519-121.98 241.87-134.737" fill="#0508a7"/><path d="M725.971 935.533c3.736-.657 5.508-.614 9.34-.681l.748 1.615c-1.211.345-1.936.554-3.096.982-2.578-1.703-2.884-1.454-6.043-1.775z" fill="#2c44b3"/><path d="M1100.67 1412.36c9.91-2.15 7.42-.46 9.45 11.63 2.17 12.93 8.98 33.15 1.47 44.62a23.5 23.5 0 0 1-11.46 9.07c-3.75.72-7.82 1.71-11.64 1.06-32.22-5.5-24.56-51.58 8.02-44.26 1.32.29 2.24 1.02 3.43.32 2.29-4.76-6.4-16.65.73-22.44" fill="#fefefe"/><path d="M1099.4 1466.01c-22.52 13.73-31.91-29.59-.17-22.2 7.03 6.88 6.99 15.24.17 22.2" fill="#7e8feb"/><path d="M1099.23 1443.81c7.03 6.88 6.99 15.24.17 22.2-1.28-3.03-1.51-18.74-.17-22.2" fill="#3552bf"/><path d="M795.132 1385.07c16.665-.82 32.107 6.53 30.836 26.43-.712 11.16-15.332 22.93-26.422 21.14-6.997-1.13-11.351-5.37-15.499-11.02-1.503-6.12-10.934 16.8-11.667 18.33l-9.886-5.01c9.239-17.07 17.224-41.62 32.638-49.87" fill="#fefefe"/><path d="M798.968 1394.89c18.984.67 20.65 18.56 6.415 27.75-17.072 1.58-21.908-17.82-6.415-27.75" fill="#7e8feb"/><path d="M1027.54 1439.4a23.4 23.4 0 0 1 23.31 3.82 23.43 23.43 0 0 1 8.12 22.18 23.43 23.43 0 0 1-15.34 17.97c-12.08 4.21-25.3-2.05-29.69-14.06-4.4-12.01 1.65-25.33 13.6-29.91" fill="#fefefe"/><path d="M1031.71 1448.14c9.45.23 17.87 3.57 16.44 14.87-.5 3.68-2.5 7-5.53 9.16-.84.59-1.69 1.19-2.54 1.79-10.34.04-18.34-4.52-15.96-16.46.61-3.22 2.51-6.04 5.25-7.84l.81-.51z" fill="#7e8feb"/><path d="M845.132 1409.17c5.401-.45 10.301.08 14.355.06 14.513-.42 23.523 30.39 8.596 30.5-5.414.05-42.201-18.96-22.295 2.66 3.349 1.67 6.901 3.24 10.705 2.31 1.478-.21 4.506-1.66 5.471.22.857 1.66 2.715 8.21.071 8.99-4.797 1.42-12.797 0-17.437-1.25-12.332-3.31-17.839-18.34-13.769-29.68 2.74-7.8 7.079-10.33 14.303-13.81" fill="#fefefe"/><path d="M849.754 1416.96c16.39.46 19.822 13.77 10.622 12.83l-1.118-.36c-10.209-3.41-23.734-3.59-9.504-12.47" fill="#7e8feb"/><path d="M932.208 1431.14c23.772-.9 28.265 9.33 26.062 30.81-9.922-2.44-20.968-5.61-31.118-5.57-2.104.01.861 5.54 1.14 6.01 2.753 4.57 6.885 5.31 11.539 6.24 8.719-3.46 6.237-3.75 11.702 5.03l.499.79c-9.235 2.4-15.211 4.21-24.409.15-12.247-5.41-15.835-20.51-10.191-31.97 3.226-6.55 8.121-9.18 14.776-11.49" fill="#fefefe"/><path d="M933.616 1440.08c17.308.89 17.962 12.17 10.261 11.2-7.851-1.67-26.909-1.62-10.261-11.2" fill="#7e8feb"/><path d="M965.402 1436.74c4.41.86 8.546 1.42 12.969 2.14 2.175 11.86 3.855 21.33 7.394 33.02 4.276-10.58 8.402-20.88 13.034-31.33 13.631 1.17 12.731-1.37 7.601 10.16-4.77 9.59-8.409 19.36-12.833 28.88l-.863 1.83-.781 1.74c-5.398-.31-7.603-.6-12.781-1.37-5.048-14.78-8.516-30.87-13.74-45.07m-74.823-15.91c11.534 1.67 8.387-.54 9.714 5.55 16.792-1.09 16.849-5.74 12.022 9-4.921-.27-8.925-.32-13.824-.31-2.148 5.78-2.859 9.44-4.578 15.07-1.452 5.39-2.45 10.37-4.167 15.82l-11.81-3.16c5.142-12.55 9.167-28.66 12.643-41.97" fill="#fefefe"/><path d="M1192.81 920.754c-26.56-28.393-40.18-71.547-37.33-110.044 2.88-38.977 26.69-75.57 56.26-100.03 87.21-72.139 240.05-52.859 311.38 33.293 19.29 23.336 37.58 62.4 34.42 93.226 2.31 1.828 3.07 2.214 3.58 5.358 5.12 31.495 10.05 63.585 14.71 95.122 2.89 19.558-6.86 35.725-14.32 52.858-10.62 23.143-20.08 46.723-29.88 70.213-5.9 14.15-5.78 21.47-5.61 36.39-21.96.03-44.59-.21-66.5.38-10.28 1-26.65.52-37.51.5-18.04-.04-37.08.24-55-.48l-.34-108.856c-33.9.16-83.73-5.04-112.15-24.669-22.49 3.239-58.88 12.468-80.92 18.504 4.99-19.762 13.08-41.756 19.21-61.765" fill="#01a8eb"/><path d="M1525.57 893.748c5.01-18.329-10.16-79.059 31.97-56.549 2.31 1.828 3.07 2.214 3.58 5.358 5.12 31.495 10.05 63.585 14.71 95.122 2.89 19.558-6.86 35.725-14.32 52.858-10.62 23.143-20.08 46.723-29.88 70.213-5.9 14.15-5.78 21.47-5.61 36.39-21.96.03-44.59-.21-66.5.38-10.28 1-26.65.52-37.51.5-18.04-.04-37.08.24-55-.48l-.34-108.856c8.27-.275 16.89-.873 25.18-1.321 4.49 2.091 60.69.774 69.03.816 10.83-20.126 25.13-30.524 42.4-44.791q-.735-2.994-1.41-6.001c10.68-9.864 19.31-29.96 23.7-43.639" fill="#7e8feb"/><path d="M1366.67 988.684c8.27-.275 16.89-.873 25.18-1.321 4.49 2.091 60.69.774 69.03.816-15.96 23.161-23.11 40.971-18.34 70.051 2.19 13.34 8.55 28.64 16.98 39.29-10.28 1-26.65.52-37.51.5-18.04-.04-37.08.24-55-.48z" fill="#3552bf"/><path d="M1525.57 893.748c1.3 8.017.56 29.479.3 38.302-4.63 2.412-18.98 10.701-22.59 11.338q-.735-2.994-1.41-6.001c10.68-9.864 19.31-29.96 23.7-43.639" fill="#fefefe"/><path d="M1391.85 987.363c42.56-3.483 77.95-23.21 110.02-49.976q.675 3.006 1.41 6.001c-17.27 14.267-31.57 24.665-42.4 44.791-8.34-.042-64.54 1.275-69.03-.816" fill="#020a51"/><path d="M1333.35 735.265c17.36-1.859 58.05-.39 76.65-.217-.43 61.852.93 123.797.25 185.85l-18.41-1.201a2915 2915 0 0 1-.3-78.8l-36.63.041a1047 1047 0 0 0-19.53 25.402 3036 3036 0 0 0-39.86 53.627c-7.18.335-15.07.148-22.32.106 20.03-28.833 39.08-53.649 60.16-81.33-9.37-1.852-16.28-3.748-24.4-9.531a49.02 49.02 0 0 1-19.94-32.182c-4.93-30.422 14.01-56.937 44.33-61.765" fill="#fefefe"/><path d="M1343.9 752.428c15.79-.343 31.59-.382 47.38-.116 1.39 18.657.79 52.443.6 71.885q-16.95.341-33.9.124c-13.75-.366-24.75.31-37.04-8.131-17.05-11.717-17.52-36.879-5.46-52.314 7.38-9.447 17.12-10.59 28.42-11.448" fill="#01a8eb"/><path d="M829.773 460.438c34.734-16.501 98.25-15.021 131.494 4.877 2.426.785 3.464 1.292 5.79 2.385 24.217 11.638 45.943 31.508 60.423 54.08 16.96 26.435 22.81 58.344 30.1 88.475a2696 2696 0 0 0 24.32 96.614q-19.11-.079-38.22-.598c-8.97 40.827-18.43 86.493-29.02 126.718-28.561-.13-67.888-1.527-95.806-.072.408 16.278-3.527 37.512-3.954 54.393-1.788 14.943-2.985 32.164-5.126 46.564-56.294-15.683-118.22-17.247-173.715 2.593l-.748-1.615c14.441-47.726 27.913-101.289 40.783-149.752l-1.343-1.028c-28.019-20.206-53.45-56.1-65.381-88.315-39.869-107.654 17.541-197.119 120.403-235.319" fill="url(#c)"/><path d="m829.773 460.438.237 1.579c-4.566 4.87-8.822 9.824-13.209 14.855-22.866 26.223-33.371 65.171-27.898 99.834 11.281-1.738 17.341-1.235 28.761-.526-.219 3.532.35 5.606-2.264 8.034-1.391 6.398 3.011 15.852 6.41 21.172 12.668 19.822 33.155 31.622 52.61 43.653 44.112 27.28 55.033 80.653 49.886 129.036-1.278 12.014-5.873 45.113-5.452 54.842.408 16.278-3.527 37.512-3.954 54.393-1.788 14.943-2.985 32.164-5.126 46.564-56.294-15.683-118.22-17.247-173.715 2.593l-.748-1.615c14.441-47.726 27.913-101.289 40.783-149.752l-1.343-1.028c-28.019-20.206-53.45-56.1-65.381-88.315-39.869-107.654 17.541-197.119 120.403-235.319" fill="#3552bf"/><path d="m829.773 460.438.237 1.579c-4.566 4.87-8.822 9.824-13.209 14.855-22.866 26.223-33.371 65.171-27.898 99.834-46.427 13.801-48.25 76.564-6.29 96.873 2.631 1.273 5.469 2.353 8.194 3.418 4.782.911 9.468 1.584 14.3 2.234l-.774 2.814c-2.257 8.491-4.244 20.025-8.961 27.222.817 6.675-15.276 64.5-18.159 71.846-.943 1.58-1.115 1.627-2.462 2.959-28.019-20.206-53.45-56.1-65.381-88.315-39.869-107.654 17.541-197.119 120.403-235.319" fill="#020a51"/><path d="M790.807 676.997c4.782.911 9.468 1.584 14.3 2.234l-.774 2.814c-2.257 8.491-4.244 20.025-8.961 27.222-4.71-14.624-3.852-18.113-4.565-32.27m-16.056 107.075c1.347-1.332 1.519-1.379 2.462-2.959 2.001 1.946 3.593 3.117 5.641 5.264 33.68 27.829 59.883 38.681 104.059 44.539 8.307 1.101 23.728 2.286 31.941 2.001.408 16.278-3.527 37.512-3.954 54.393-1.788 14.943-2.985 32.164-5.126 46.564-56.294-15.683-118.22-17.247-173.715 2.593l-.748-1.615c14.441-47.726 27.913-101.289 40.783-149.752z" fill="#01a8eb"/><path d="M782.854 786.377c33.68 27.829 59.883 38.681 104.059 44.539 8.307 1.101 23.728 2.286 31.941 2.001.408 16.278-3.527 37.512-3.954 54.393-68.536-6.889-98.702-40.628-132.816-96.33z" fill="#020a51"/><path d="M774.751 784.072c1.347-1.332 1.519-1.379 2.462-2.959 2.001 1.946 3.593 3.117 5.641 5.264l-.77 4.603c-2.479-2.966-2.817-3.696-5.99-5.88z" fill="#0508a7"/><path d="M788.903 576.706c11.281-1.738 17.341-1.235 28.761-.526-.219 3.532.35 5.606-2.264 8.034-56.092-15.73-79.641 70.484-19.317 84.805q5.098 1.182 10.23 2.205c-.282 3.365-.514 4.679-1.206 8.007-4.832-.65-9.518-1.323-14.3-2.234-2.725-1.065-5.563-2.145-8.194-3.418-41.96-20.309-40.137-83.072 6.29-96.873" fill="#fefefe"/><path d="M829.773 460.438c34.734-16.501 98.25-15.021 131.494 4.877-3.22 1.991-3.864 1.725-7.61 2.549-40.601.547-70.714 8.066-100.967 37.797-16.655 16.368-33.152 47.114-35.026 70.519-11.42-.709-17.48-1.212-28.761.526-5.473-34.663 5.032-73.611 27.898-99.834 4.387-5.031 8.643-9.985 13.209-14.855z" fill="#3552bf"/><path d="M961.267 465.315c2.426.785 3.464 1.292 5.79 2.385-4.908.54-8.499.287-13.4.164 3.746-.824 4.39-.558 7.61-2.549" fill="#2c44b3"/><path d="M961.957 596.104a20.639 20.639 0 1 1 12.795 39.22c-10.688 3.089-21.902-2.849-25.352-13.426-3.451-10.577 2.103-21.986 12.557-25.794" fill="#fefefe"/><path d="m1526.02 1097.14 33.59.02c-35.03 146.17-119.54 270.92-248.63 349.87a575 575 0 0 1-210.94 78.61l.09-47.96c4.69-1.73 8.71-4.91 11.46-9.07 7.51-11.47.7-31.69-1.47-44.62-2.03-12.09.46-13.78-9.45-11.63-1.28-3.26-.82-77.14-.87-86.01 4.84-2.12 9.97-4.08 14.87-6.04 64.37-25.84 116.36-71.97 159.52-125.38 24.28-30.05 43.33-63.18 61.85-97.39 10.35-.33 20.62-.13 30.97 0 17.92.72 36.96.44 55 .48 10.86.02 27.23.5 37.51-.5 21.91-.59 44.54-.35 66.5-.38" fill="url(#d)"/><path d="M1198.29 1396.22c4.9-.23 8.57-.36 13.23 1.7 9.66 4.29 13.84 13.79 17.33 23.09.57 1.85 1.5 3.6 2.69 5.12.27.35 2.6 2.66 1.94 3.17-2.05 1.63-6.44 4.55-8.93 4.94-1.85.29-2.78-6.44-5.4-1.3-1.35 2.66-3.58 5.3-5.62 7.57-6.79 4.49-12.9 5.7-20.52 2.23a24.44 24.44 0 0 1-12.92-13.75c-5.43-14.93 4.01-28.08 18.2-32.77" fill="#fefefe"/><path d="M1197.47 1407.63c4.53-1.74 9.64-.89 13.35 2.22 3.72 3.11 5.45 7.99 4.54 12.75s-4.32 8.65-8.92 10.17c-6.89 2.27-14.32-1.37-16.76-8.2-2.43-6.83 1.03-14.35 7.79-16.94" fill="#3552bf"/><path d="M1148.09 1403.47c4.17 1.97 4.04 7.11 5.52 11.9 4-1.15 8.02-2.16 11.95-3.53 3.34 12.14 3.17 9.03-7.81 11.63l.53 1.73c10.15 33.85 11.71 13.26 21.32 21.68.14.55.28 1.1.43 1.66 4.35 7.41-13.45 8.35-16.45 7.14-11.48-4.62-13.84-23.8-17.5-34.15-1.8-5.06-3.53-10.59-3.87-15.48-.06-.79 3.73-1.78 4.13-1.93zm98.49-33.92c3.87 1.43 4.36 5.12 6.58 9.42-18.67 12.91-6.44 17.69 1.88 36.51l1.3 2.94c-3.67 2.02-8.57 6.63-11.29 3.06-6.72-12.26-12.8-24.82-19.74-36.95 1.64-1.4 6.61-6.17 7.66-5.06 7.84 8.34 1.28.4 13.61-9.92m-116.03 54.26c2.95.56 3.81 3.49 4.21 6.2 1.08 7.35 10.09 30.45 9.8 36.41-1.53.99-6.31 2.07-8.16 2.55-.56.03-1.18.14-1.69-.19-.84-.55-1.36-1.82-1.58-2.76-.28-1.19-.6-2.36-.89-3.54-.82-3.42-9.95-34.1-9.76-34.82.41-1.5 7.09-3.47 8.07-3.85m-4.68-17.87c2.23 1.09 2.3 1.26 3.29 3.48 3.52 7.82.52 7.4-6.81 10.16-9.08-4.19-5.82-10.97 3.52-13.64" fill="#fefefe"/><path d="M1057.27 1233.56a232.56 232.56 0 0 1-124.99 14.92c-84.397-12.56-170.572-85.59-155.394-178.6 16.34-100.138 140.026-138.996 228.524-124.749 83.32 13.415 172.1 72.959 154.98 168.809l-1.05 5.97c-8.17 32.48-16.93 48.69-40.37 72.68 4.98 20.2 12.7 45.65 18.94 65.52-26.25-8.85-53.28-14.81-80.64-24.55" fill="#3552bf"/><path d="m965.182 1003.42 11.606.26c21.676 43.35 38.682 91.87 58.302 136.4 6.2 14.07 12.93 29.84 17.94 44.31l-20.02-.6c-8.46-15.48-15.37-34.14-21.85-50.63-12.624.46-25.979.43-38.66.6l-46.546.27c-7.475 17.27-14.183 33.21-20.786 50.82-6.819-.45-14.062-.62-20.925-.89 7.793-16.93 14.954-36.68 22.222-54.19a8596 8596 0 0 1 37.616-88.18c4.714-11.12 9.849-24.82 14.793-36.11.926-2.11 3.764-1.8 6.308-2.06" fill="#fefefe"/><path d="M967.251 1027.67c3.094 2.78 32.122 77.8 36.099 87.43l-34.6-.2c-11.426-.08-23.178-.06-34.565-.55 9.763-28.7 22.764-57.53 33.066-86.68" fill="#3552bf"/><path d="M1289.52 1065.64c-12.05 3.65-20.03 7.28-32.31 3.29l-1.45-1.52c3.1-4.12 36.05-8.88 43.75-10.39l1.11.54c1.29 6.52-9.42 39.53-14.08 43.54-4.04-4.94 1.2-19.19 3.24-24.72-40.5 31.95-77.85 48.44-130.44 43.53l1.05-5.97c42.19 1.51 89.35-10.57 120.86-40.22 2.79-2.66 5.55-5.35 8.27-8.08m-159.63-181.406c5.06 2.092 15.66 22.962 20.95 28.623 3.43 3.666 5.78 6.307 9.79 10.045-10.66.603-23.09.726-33.67 1.984-3.87.46-9.47 5.38-15.02 5.914l-1.01-1.264c2.28-7.597 18.89-11.66 25.62-13.684-30.01-16.255-69.81-20.811-103.32-15.444-16.07 3.43-25.49 9.35-38.419 12.549l.995-1.182-.486 1.267.89-.133.216-1.533c40.994-24.968 105.254-26.295 145.084 1.325-3.66-7.434-8.69-13.452-12.14-20.973-1.62-3.538-.71-4.218.52-7.494" fill="#b7c3f4"/></svg>
